<svg width="28" height="28" viewBox="0 0 28 28" fill="none" xmlns="http://www.w3.org/2000/svg">
<g id="mdi:calendar">
<path id="Vector" d="M22.1667 22.1667H5.83333V9.33342H22.1667M18.6667 1.16675V3.50008H9.33333V1.16675H7V3.50008H5.83333C4.53833 3.50008 3.5 4.53841 3.5 5.83342V22.1667C3.5 22.7856 3.74583 23.3791 4.18342 23.8167C4.621 24.2542 5.21449 24.5001 5.83333 24.5001H22.1667C22.7855 24.5001 23.379 24.2542 23.8166 23.8167C24.2542 23.3791 24.5 22.7856 24.5 22.1667V5.83342C24.5 5.21458 24.2542 4.62108 23.8166 4.1835C23.379 3.74591 22.7855 3.50008 22.1667 3.50008H21V1.16675M19.8333 14.0001H14V19.8334H19.8333V14.0001Z" fill="#00104A"/>
</g>
</svg>
