<svg width="28" height="28" viewBox="0 0 28 28" fill="none" xmlns="http://www.w3.org/2000/svg">
<g id="material-symbols:csv">
<path id="Vector" d="M6.70825 17.5003H10.2083V15.7503H7.29159V12.2503H10.2083V10.5003H6.70825C6.3777 10.5003 6.10042 10.6123 5.87642 10.8363C5.65242 11.0603 5.54081 11.3372 5.54159 11.667V16.3337C5.54159 16.6642 5.65359 16.9415 5.87759 17.1655C6.10159 17.3895 6.37848 17.5011 6.70825 17.5003ZM11.2583 17.5003H14.7583C15.0888 17.5003 15.3661 17.3883 15.5901 17.1643C15.8141 16.9403 15.9257 16.6634 15.9249 16.3337V14.5837C15.9249 14.2531 15.8129 13.9467 15.5889 13.6643C15.3649 13.382 15.088 13.2412 14.7583 13.242H13.0083V12.2503H15.9249V10.5003H12.4249C12.0944 10.5003 11.8171 10.6123 11.5931 10.8363C11.3691 11.0603 11.2575 11.3372 11.2583 11.667V13.417C11.2583 13.7476 11.3703 14.0443 11.5943 14.3072C11.8183 14.5701 12.0951 14.7011 12.4249 14.7003H14.1749V15.7503H11.2583V17.5003ZM18.9583 17.5003H20.7083L22.7499 10.5003H20.9999L19.8333 14.5253L18.6666 10.5003H16.9166L18.9583 17.5003ZM4.66659 23.3337C4.02492 23.3337 3.47542 23.105 3.01809 22.6477C2.56075 22.1903 2.33248 21.6412 2.33325 21.0003V7.00033C2.33325 6.35866 2.56192 5.80916 3.01925 5.35183C3.47659 4.89449 4.0257 4.66622 4.66659 4.66699H23.3333C23.9749 4.66699 24.5244 4.89566 24.9818 5.35299C25.4391 5.81033 25.6674 6.35944 25.6666 7.00033V21.0003C25.6666 21.642 25.4379 22.1915 24.9806 22.6488C24.5233 23.1062 23.9741 23.3344 23.3333 23.3337H4.66659Z" fill="#00104A"/>
</g>
</svg>
