<svg width="25" height="24" viewBox="0 0 25 24" fill="none" xmlns="http://www.w3.org/2000/svg">
<g id="octicon:kebab-horizontal-24">
<path id="Vector" d="M20.5 14.0005C20.2336 14.0065 19.9688 13.9592 19.721 13.8615C19.4731 13.7637 19.2473 13.6175 19.0568 13.4313C18.8663 13.245 18.7149 13.0226 18.6115 12.7771C18.5081 12.5316 18.4548 12.2679 18.4548 12.0015C18.4547 11.7351 18.5079 11.4713 18.6111 11.2258C18.7144 10.9802 18.8657 10.7577 19.0561 10.5714C19.2465 10.3851 19.4722 10.2387 19.72 10.1408C19.9678 10.043 20.2326 9.99558 20.499 10.0015C21.0215 10.013 21.5188 10.2287 21.8843 10.6023C22.2499 10.9759 22.4546 11.4778 22.4548 12.0005C22.4549 12.5232 22.2504 13.0251 21.885 13.3989C21.5197 13.7727 21.0225 13.9886 20.5 14.0005ZM6.49998 12.0005C6.506 12.2668 6.45875 12.5317 6.36101 12.7795C6.26326 13.0273 6.11699 13.2531 5.93077 13.4436C5.74456 13.6342 5.52216 13.7856 5.27663 13.8889C5.0311 13.9923 4.7674 14.0456 4.50099 14.0457C4.23458 14.0457 3.97085 13.9926 3.72527 13.8893C3.47969 13.7861 3.25721 13.6348 3.0709 13.4444C2.88459 13.2539 2.73821 13.0282 2.64034 12.7804C2.54247 12.5326 2.49509 12.2678 2.50098 12.0015C2.51253 11.4789 2.7282 10.9816 3.10182 10.6161C3.47543 10.2506 3.9773 10.0458 4.49999 10.0457C5.02268 10.0455 5.52465 10.25 5.89845 10.6154C6.27224 10.9807 6.48816 11.4779 6.49998 12.0005ZM14.5 12.0005C14.506 12.2668 14.4588 12.5317 14.361 12.7795C14.2633 13.0273 14.117 13.2531 13.9308 13.4436C13.7446 13.6342 13.5222 13.7856 13.2766 13.8889C13.0311 13.9923 12.7674 14.0456 12.501 14.0457C12.2346 14.0457 11.9708 13.9926 11.7253 13.8893C11.4797 13.7861 11.2572 13.6348 11.0709 13.4444C10.8846 13.2539 10.7382 13.0282 10.6403 12.7804C10.5425 12.5326 10.4951 12.2678 10.501 12.0015C10.5125 11.4789 10.7282 10.9816 11.1018 10.6161C11.4754 10.2506 11.9773 10.0458 12.5 10.0457C13.0227 10.0455 13.5246 10.25 13.8984 10.6154C14.2722 10.9807 14.4882 11.4779 14.5 12.0005Z" fill="currentColor"/>
</g>
</svg>
