<svg width="24" height="24" viewBox="0 0 24 24" fill="none" xmlns="http://www.w3.org/2000/svg">
<g id="octicon:kebab-horizontal-24">
<path id="Vector" d="M14 3.99953C14.006 4.26587 13.9588 4.53073 13.861 4.77856C13.7633 5.02639 13.617 5.25219 13.4308 5.44271C13.2446 5.63323 13.0222 5.78462 12.7766 5.88801C12.5311 5.99139 12.2674 6.04468 12.001 6.04475C11.7346 6.04482 11.4708 5.99166 11.2253 5.8884C10.9797 5.78513 10.7572 5.63385 10.5709 5.44342C10.3846 5.253 10.2382 5.02727 10.1403 4.77949C10.0425 4.53171 9.99509 4.26688 10.001 4.00053C10.0125 3.47797 10.2282 2.9807 10.6018 2.61516C10.9754 2.24963 11.4773 2.04488 12 2.04475C12.5227 2.04462 13.0246 2.24912 13.3984 2.61447C13.7722 2.97981 13.9882 3.47698 14 3.99953ZM12 17.9995C12.2663 17.9935 12.5312 18.0408 12.779 18.1385C13.0268 18.2363 13.2526 18.3825 13.4432 18.5687C13.6337 18.755 13.7851 18.9774 13.8885 19.2229C13.9918 19.4684 14.0451 19.7321 14.0452 19.9985C14.0453 20.2649 13.9921 20.5287 13.8888 20.7742C13.7856 21.0198 13.6343 21.2423 13.4439 21.4286C13.2534 21.6149 13.0277 21.7613 12.7799 21.8592C12.5322 21.957 12.2673 22.0044 12.001 21.9985C11.4784 21.987 10.9811 21.7713 10.6156 21.3977C10.2501 21.0241 10.0453 20.5222 10.0452 19.9995C10.0451 19.4768 10.2496 18.9749 10.6149 18.6011C10.9803 18.2273 11.4774 18.0114 12 17.9995ZM12 9.99953C12.2663 9.99351 12.5312 10.0408 12.779 10.1385C13.0268 10.2363 13.2526 10.3825 13.4432 10.5687C13.6337 10.755 13.7851 10.9774 13.8885 11.2229C13.9918 11.4684 14.0451 11.7321 14.0452 11.9985C14.0453 12.2649 13.9921 12.5287 13.8888 12.7742C13.7856 13.0198 13.6343 13.2423 13.4439 13.4286C13.2534 13.6149 13.0277 13.7613 12.7799 13.8592C12.5322 13.957 12.2673 14.0044 12.001 13.9985C11.4784 13.987 10.9811 13.7713 10.6156 13.3977C10.2501 13.0241 10.0453 12.5222 10.0452 11.9995C10.0451 11.4768 10.2496 10.9749 10.6149 10.6011C10.9803 10.2273 11.4774 10.0114 12 9.99953Z" fill="#00104A"/>
</g>
</svg>
