<svg width="28" height="28" viewBox="0 0 28 28" fill="none" xmlns="http://www.w3.org/2000/svg">
<g id="heroicons:qr-code-20-solid">
<path id="Vector" fill-rule="evenodd" clip-rule="evenodd" d="M5.25005 2.7998C4.60027 2.7998 3.9771 3.05793 3.51764 3.51739C3.05817 3.97686 2.80005 4.60002 2.80005 5.2498V10.1498C2.80005 11.5022 3.89765 12.5998 5.25005 12.5998H10.15C10.7998 12.5998 11.423 12.3417 11.8825 11.8822C12.3419 11.4228 12.6 10.7996 12.6 10.1498V5.2498C12.6 4.60002 12.3419 3.97686 11.8825 3.51739C11.423 3.05793 10.7998 2.7998 10.15 2.7998H5.25005ZM4.90005 5.2498C4.90005 5.15698 4.93692 5.06796 5.00256 5.00232C5.0682 4.93668 5.15722 4.8998 5.25005 4.8998H10.15C10.2429 4.8998 10.3319 4.93668 10.3975 5.00232C10.4632 5.06796 10.5 5.15698 10.5 5.2498V10.1498C10.5 10.2426 10.4632 10.3317 10.3975 10.3973C10.3319 10.4629 10.2429 10.4998 10.15 10.4998H5.25005C5.15722 10.4998 5.0682 10.4629 5.00256 10.3973C4.93692 10.3317 4.90005 10.2426 4.90005 10.1498V5.2498ZM5.25005 15.3998C4.60027 15.3998 3.9771 15.6579 3.51764 16.1174C3.05817 16.5769 2.80005 17.2 2.80005 17.8498V22.7498C2.80005 24.1022 3.89765 25.1998 5.25005 25.1998H10.15C10.7998 25.1998 11.423 24.9417 11.8825 24.4822C12.3419 24.0228 12.6 23.3996 12.6 22.7498V17.8498C12.6 17.2 12.3419 16.5769 11.8825 16.1174C11.423 15.6579 10.7998 15.3998 10.15 15.3998H5.25005ZM4.90005 17.8498C4.90005 17.757 4.93692 17.668 5.00256 17.6023C5.0682 17.5367 5.15722 17.4998 5.25005 17.4998H10.15C10.2429 17.4998 10.3319 17.5367 10.3975 17.6023C10.4632 17.668 10.5 17.757 10.5 17.8498V22.7498C10.5 22.8426 10.4632 22.9317 10.3975 22.9973C10.3319 23.0629 10.2429 23.0998 10.15 23.0998H5.25005C5.15722 23.0998 5.0682 23.0629 5.00256 22.9973C4.93692 22.9317 4.90005 22.8426 4.90005 22.7498V17.8498ZM15.4 5.2498C15.4 3.8974 16.4976 2.7998 17.85 2.7998H22.75C24.1024 2.7998 25.2 3.8974 25.2 5.2498V10.1498C25.2 10.7996 24.9419 11.4228 24.4825 11.8822C24.023 12.3417 23.3998 12.5998 22.75 12.5998H17.85C17.2003 12.5998 16.5771 12.3417 16.1176 11.8822C15.6582 11.4228 15.4 10.7996 15.4 10.1498V5.2498ZM17.85 4.8998C17.7572 4.8998 17.6682 4.93668 17.6026 5.00232C17.5369 5.06796 17.5 5.15698 17.5 5.2498V10.1498C17.5 10.343 17.6568 10.4998 17.85 10.4998H22.75C22.8429 10.4998 22.9319 10.4629 22.9975 10.3973C23.0632 10.3317 23.1 10.2426 23.1 10.1498V5.2498C23.1 5.15698 23.0632 5.06796 22.9975 5.00232C22.9319 4.93668 22.8429 4.8998 22.75 4.8998H17.85ZM7.68605 6.2998C7.31474 6.2998 6.95865 6.4473 6.6961 6.70986C6.43355 6.97241 6.28605 7.3285 6.28605 7.6998V7.7138C6.28605 8.08511 6.43355 8.4412 6.6961 8.70375C6.95865 8.96631 7.31474 9.1138 7.68605 9.1138H7.70005C8.07135 9.1138 8.42745 8.96631 8.69 8.70375C8.95255 8.4412 9.10005 8.08511 9.10005 7.7138V7.6998C9.10005 7.3285 8.95255 6.97241 8.69 6.70986C8.42745 6.4473 8.07135 6.2998 7.70005 6.2998H7.68605ZM20.286 6.2998C19.9147 6.2998 19.5586 6.4473 19.2961 6.70986C19.0335 6.97241 18.886 7.3285 18.886 7.6998V7.7138C18.886 8.08511 19.0335 8.4412 19.2961 8.70375C19.5586 8.96631 19.9147 9.1138 20.286 9.1138H20.3C20.6714 9.1138 21.0274 8.96631 21.29 8.70375C21.5525 8.4412 21.7 8.08511 21.7 7.7138V7.6998C21.7 7.3285 21.5525 6.97241 21.29 6.70986C21.0274 6.4473 20.6714 6.2998 20.3 6.2998H20.286ZM7.68605 18.8998C7.31474 18.8998 6.95865 19.0473 6.6961 19.3099C6.43355 19.5724 6.28605 19.9285 6.28605 20.2998V20.3138C6.28605 20.6851 6.43355 21.0412 6.6961 21.3038C6.95865 21.5663 7.31474 21.7138 7.68605 21.7138H7.70005C8.07135 21.7138 8.42745 21.5663 8.69 21.3038C8.95255 21.0412 9.10005 20.6851 9.10005 20.3138V20.2998C9.10005 19.9285 8.95255 19.5724 8.69 19.3099C8.42745 19.0473 8.07135 18.8998 7.70005 18.8998H7.68605ZM20.286 18.8998C19.9147 18.8998 19.5586 19.0473 19.2961 19.3099C19.0335 19.5724 18.886 19.9285 18.886 20.2998V20.3138C18.886 20.6851 19.0335 21.0412 19.2961 21.3038C19.5586 21.5663 19.9147 21.7138 20.286 21.7138H20.3C20.6714 21.7138 21.0274 21.5663 21.29 21.3038C21.5525 21.0412 21.7 20.6851 21.7 20.3138V20.2998C21.7 19.9285 21.5525 19.5724 21.29 19.3099C21.0274 19.0473 20.6714 18.8998 20.3 18.8998H20.286ZM15.386 16.7998C15.386 16.4285 15.5335 16.0724 15.7961 15.8099C16.0586 15.5473 16.4147 15.3998 16.786 15.3998H16.8C17.1714 15.3998 17.5274 15.5473 17.79 15.8099C18.0525 16.0724 18.2 16.4285 18.2 16.7998V16.8138C18.2 17.1851 18.0525 17.5412 17.79 17.8038C17.5274 18.0663 17.1714 18.2138 16.8 18.2138H16.786C16.4147 18.2138 16.0586 18.0663 15.7961 17.8038C15.5335 17.5412 15.386 17.1851 15.386 16.8138V16.7998ZM23.786 15.3998C23.4147 15.3998 23.0586 15.5473 22.7961 15.8099C22.5335 16.0724 22.386 16.4285 22.386 16.7998V16.8138C22.386 17.1851 22.5335 17.5412 22.7961 17.8038C23.0586 18.0663 23.4147 18.2138 23.786 18.2138H23.8C24.1713 18.2138 24.5274 18.0663 24.79 17.8038C25.0525 17.5412 25.2 17.1851 25.2 16.8138V16.7998C25.2 16.4285 25.0525 16.0724 24.79 15.8099C24.5274 15.5473 24.1713 15.3998 23.8 15.3998H23.786ZM22.386 23.7998C22.386 23.4285 22.5335 23.0724 22.7961 22.8099C23.0586 22.5473 23.4147 22.3998 23.786 22.3998H23.8C24.1713 22.3998 24.5274 22.5473 24.79 22.8099C25.0525 23.0724 25.2 23.4285 25.2 23.7998V23.8138C25.2 24.1851 25.0525 24.5412 24.79 24.8038C24.5274 25.0663 24.1713 25.2138 23.8 25.2138H23.786C23.4147 25.2138 23.0586 25.0663 22.7961 24.8038C22.5335 24.5412 22.386 24.1851 22.386 23.8138V23.7998ZM16.786 22.3998C16.4147 22.3998 16.0586 22.5473 15.7961 22.8099C15.5335 23.0724 15.386 23.4285 15.386 23.7998V23.8138C15.386 24.1851 15.5335 24.5412 15.7961 24.8038C16.0586 25.0663 16.4147 25.2138 16.786 25.2138H16.8C17.1714 25.2138 17.5274 25.0663 17.79 24.8038C18.0525 24.5412 18.2 24.1851 18.2 23.8138V23.7998C18.2 23.4285 18.0525 23.0724 17.79 22.8099C17.5274 22.5473 17.1714 22.3998 16.8 22.3998H16.786Z" fill="#00104A"/>
</g>
</svg>
