<svg width="30" height="30" viewBox="0 0 30 30" fill="none" xmlns="http://www.w3.org/2000/svg">
<g id="Vector">
<path d="M10.3333 29H19.6667ZM10.3333 29V21.2222ZM10.3333 29H1.93333C1.6858 29 1.4484 28.9017 1.27337 28.7266C1.09833 28.5516 1 28.3142 1 28.0667V22.1556C1 21.908 1.09833 21.6706 1.27337 21.4956C1.4484 21.3206 1.6858 21.2222 1.93333 21.2222H10.3333M19.6667 29V10.3333ZM19.6667 29H28.0667C28.3142 29 28.5516 28.9017 28.7266 28.7266C28.9017 28.5516 29 28.3142 29 28.0667V1.93333C29 1.6858 28.9017 1.4484 28.7266 1.27337C28.5516 1.09833 28.3142 1 28.0667 1H20.6C20.3525 1 20.1151 1.09833 19.94 1.27337C19.765 1.4484 19.6667 1.6858 19.6667 1.93333V10.3333M19.6667 10.3333H11.2667C11.0191 10.3333 10.7817 10.4317 10.6067 10.6067C10.4317 10.7817 10.3333 11.0191 10.3333 11.2667V21.2222" fill="#00104A"/>
<path d="M10.3333 29H19.6667M10.3333 29V21.2222M10.3333 29H1.93333C1.6858 29 1.4484 28.9017 1.27337 28.7266C1.09833 28.5516 1 28.3142 1 28.0667V22.1556C1 21.908 1.09833 21.6706 1.27337 21.4956C1.4484 21.3206 1.6858 21.2222 1.93333 21.2222H10.3333M19.6667 29V10.3333M19.6667 29H28.0667C28.3142 29 28.5516 28.9017 28.7266 28.7266C28.9017 28.5516 29 28.3142 29 28.0667V1.93333C29 1.6858 28.9017 1.4484 28.7266 1.27337C28.5516 1.09833 28.3142 1 28.0667 1H20.6C20.3525 1 20.1151 1.09833 19.94 1.27337C19.765 1.4484 19.6667 1.6858 19.6667 1.93333V10.3333M10.3333 21.2222V11.2667C10.3333 11.0191 10.4317 10.7817 10.6067 10.6067C10.7817 10.4317 11.0191 10.3333 11.2667 10.3333H19.6667" stroke="#00104A" stroke-width="1.5"/>
</g>
</svg>
