<svg width="28" height="28" viewBox="0 0 28 28" fill="none" xmlns="http://www.w3.org/2000/svg">
<g id="tabler:table-export">
<path id="Vector" d="M14.5833 24.5H5.83333C5.21449 24.5 4.621 24.2542 4.18342 23.8166C3.74583 23.379 3.5 22.7855 3.5 22.1667V5.83333C3.5 5.21449 3.74583 4.621 4.18342 4.18342C4.621 3.74583 5.21449 3.5 5.83333 3.5H22.1667C22.7855 3.5 23.379 3.74583 23.8166 4.18342C24.2542 4.621 24.5 5.21449 24.5 5.83333V14.5833M3.5 11.6667H24.5M11.6667 3.5V24.5M18.6667 22.1667H25.6667M25.6667 22.1667L22.1667 18.6667M25.6667 22.1667L22.1667 25.6667" stroke="#00104A" strokeWidth="2" stroke-linecap="round" stroke-linejoin="round"/>
</g>
</svg>
