<svg width="28" height="28" viewBox="0 0 28 28" fill="none" xmlns="http://www.w3.org/2000/svg">
<g id="tabler:table" clip-path="url(#clip0_15_13)">
<path id="Vector" d="M3.5 12.8333H27.5M12.8333 3.5V27.5M3.5 6.16667C3.5 5.45942 3.78095 4.78115 4.28105 4.28105C4.78115 3.78095 5.45942 3.5 6.16667 3.5H24.8333C25.5406 3.5 26.2189 3.78095 26.719 4.28105C27.219 4.78115 27.5 5.45942 27.5 6.16667V24.8333C27.5 25.5406 27.219 26.2189 26.719 26.719C26.2189 27.219 25.5406 27.5 24.8333 27.5H6.16667C5.45942 27.5 4.78115 27.219 4.28105 26.719C3.78095 26.2189 3.5 25.5406 3.5 24.8333V6.16667Z" stroke="#00104A" strokeWidth="2" stroke-linecap="round" stroke-linejoin="round"/>
</g>
<defs>
<clipPath id="clip0_15_13">
<rect width="28" height="28" fill="white"/>
</clipPath>
</defs>
</svg>
