<svg width="28" height="28" viewBox="0 0 28 28" fill="none" xmlns="http://www.w3.org/2000/svg">
<path id="Vector" d="M20.9918 1.82C15.534 -1.26 8.81657 -0.28 4.33831 3.92V1.4C4.33831 0.56 3.77853 0 2.93886 0C2.09918 0 1.5394 0.56 1.5394 1.4V7.7C1.5394 8.54 2.09918 9.1 2.93886 9.1H9.23641C10.0761 9.1 10.6359 8.54 10.6359 7.7C10.6359 6.86 10.0761 6.3 9.23641 6.3H5.87771C7.97689 4.06 10.9158 2.8 13.9946 2.8C20.1522 2.8 25.1902 7.84 25.1902 14C25.1902 20.16 20.1522 25.2 13.9946 25.2C7.83695 25.2 2.79891 20.16 2.79891 14C2.79891 13.16 2.23913 12.6 1.39946 12.6C0.559782 12.6 0 13.16 0 14C0 21.7 6.29755 28 13.9946 28C19.0326 28 23.6508 25.34 26.1698 21C29.9483 14.28 27.7092 5.74 20.9918 1.82ZM13.9946 8.4C13.1549 8.4 12.5951 8.96 12.5951 9.8V14C12.5951 14.84 13.1549 15.4 13.9946 15.4H16.7935C17.6331 15.4 18.1929 14.84 18.1929 14C18.1929 13.16 17.6331 12.6 16.7935 12.6H15.394V9.8C15.394 8.96 14.8342 8.4 13.9946 8.4Z" fill="#00104A"/>
</svg>
